<?xml version="1.0" standalone="no"?>
<!DOCTYPE svg PUBLIC "-//W3C//DTD SVG 20010904//EN"
 "http://www.w3.org/TR/2001/REC-SVG-20010904/DTD/svg10.dtd">
<svg version="1.0" xmlns="http://www.w3.org/2000/svg"
 width="64.000000pt" height="64.000000pt" viewBox="0 0 64.000000 64.000000"
 preserveAspectRatio="xMidYMid meet">

<g transform="translate(0.000000,64.000000) scale(0.100000,-0.100000)"
fill="#000000" stroke="none">
<path d="M247 630 c-56 -15 -108 -44 -151 -87 -122 -120 -122 -325 0 -447 89
-89 238 -118 349 -68 65 30 138 102 166 166 32 71 32 181 0 252 -27 63 -101
136 -163 164 -54 24 -148 33 -201 20z m121 -133 c15 -17 26 -67 15 -67 -5 0
-15 6 -23 13 -8 6 -6 2 5 -11 17 -21 17 -25 3 -55 -16 -33 -15 -33 10 -35 51
-4 69 -26 82 -99 10 -59 9 -69 -4 -79 -21 -15 -20 -21 2 -27 9 -3 -53 -5 -138
-5 -85 0 -147 2 -137 5 21 6 22 12 1 27 -13 10 -14 20 -4 79 13 73 31 95 82
99 26 2 26 3 11 31 -8 16 -13 40 -10 53 2 13 0 21 -6 17 -11 -7 1 36 15 55 13
16 82 16 96 -1z"/>
<path d="M302 330 c2 -18 -4 -21 -19 -9 -13 11 -13 8 2 -13 25 -34 45 -35 69
-2 18 25 18 25 -3 12 -12 -7 -21 -16 -21 -20 0 -5 -4 -8 -10 -8 -15 0 -12 21
6 34 13 10 13 12 -5 12 -11 0 -19 -3 -19 -6z"/>
<path d="M295 219 c-4 -6 -5 -12 -2 -15 2 -3 7 2 10 11 7 17 1 20 -8 4z"/>
<path d="M336 217 c3 -10 9 -15 12 -12 3 3 0 11 -7 18 -10 9 -11 8 -5 -6z"/>
<path d="M308 183 c6 -2 18 -2 25 0 6 3 1 5 -13 5 -14 0 -19 -2 -12 -5z"/>
</g>
</svg>
